<?xml version="1.0" encoding="UTF-8"?>
<svg width="475px" height="385px" viewBox="0 0 475 385" version="1.1" xmlns="http://www.w3.org/2000/svg" xmlns:xlink="http://www.w3.org/1999/xlink">
    <title>1E28825F-5FEF-42EE-8808-8213ACE77927</title>
    <defs>
        <path d="M0,385 L465,385 C470.522847,385 475,380.522847 475,375 L475,0 L475,0 L440.687124,0" id="path-1"></path>
    </defs>
    <g id="All-Pages" stroke="none" stroke-width="1" fill="none" fill-rule="evenodd">
        <g id="News-Page" transform="translate(-407.000000, -312.000000)">
            <g id="Shape" transform="translate(407.000000, 312.000000)">
                <mask id="mask-2" fill="white">
                    <use xlink:href="#path-1"></use>
                </mask>
                <use id="Mask" fill="#6CB33F" xlink:href="#path-1"></use>
                <path d="M113,236.478706 C113,235.759235 113.146592,235.046788 113.431467,234.382091 C113.716344,233.717382 114.133905,233.113419 114.660285,232.604672 C115.186668,232.095928 115.811551,231.692372 116.499299,231.417039 C117.187047,231.14171 117.9242,231 118.668624,231 L347.331412,231 C348.834941,231 350.276706,231.577218 351.339765,232.604672 C352.402824,233.632129 353,235.025647 353,236.478706 L353,465.521294 C353,466.974353 352.402824,468.367765 351.339765,469.395176 C350.276706,470.422941 348.834941,471 347.331412,471 L118.683941,471 C117.939518,471 117.202435,470.858471 116.514673,470.582824 C115.826921,470.307529 115.202,469.904118 114.67562,469.395176 C114.149236,468.886588 113.731714,468.282706 113.446841,467.617765 C113.161964,466.953176 113.015333,466.240941 113.015333,465.521294 L113,236.478706 Z M121.571429,245.812884 C121.571429,244.725856 122.020534,243.683375 122.819976,242.91472 C123.619453,242.146101 124.703796,241.714286 125.834408,241.714286 L338.022806,241.714286 C339.153276,241.714286 340.23769,242.146101 341.036919,242.91472 C341.836502,243.683375 342.285714,244.725856 342.285714,245.812884 L342.285714,458.329974 C342.285714,459.417177 341.836502,460.459623 341.036919,461.228243 C340.23769,461.996862 339.153276,462.428571 338.022806,462.428571 L125.834408,462.428571 C124.703796,462.428571 123.619453,461.996862 122.819976,461.228243 C122.020534,460.459623 121.571429,459.417177 121.571429,458.329974 L121.571429,245.812884 Z M132.285714,312.300652 C132.285714,310.486134 133.808507,309.760963 135.712603,310.691557 L225.287504,354.594269 C226.243162,355.083962 227.056911,355.794637 227.655131,356.662296 C228.253351,357.529602 228.617546,358.526314 228.714286,359.562979 L228.714286,447.556147 C228.714286,449.371018 227.191706,450.096189 225.287504,449.165595 L135.712603,405.262884 C134.758083,404.771776 133.945329,404.060748 133.347216,403.193442 C132.749139,402.32649 132.384374,401.330131 132.285714,400.294173 L132.285714,312.300652 Z M204.360131,248.165314 C207.941964,248.165314 208.397154,249.640346 204.820617,251.492219 L137.010888,285.806887 C133.429267,287.621582 132.308739,286.4485 132.285714,284.618834 L132.285714,251.424814 C132.285714,249.595397 132.648983,248.142857 135.514273,248.142857 L204.360131,248.165314 Z M261.639745,248.165314 C258.058265,248.165314 257.602723,249.640346 261.179259,251.492219 L328.989007,285.806887 C332.57084,287.621582 333.691332,286.4485 333.714286,284.618834 L333.714286,251.424814 C333.714286,249.595397 333.350911,248.142857 330.48594,248.142857 L261.639745,248.165314 Z M261.639649,453.839672 C258.058287,453.839672 257.60276,452.364297 261.179178,450.511698 L328.989516,416.193346 C332.570877,414.378185 333.691333,415.551568 333.714286,417.381704 L333.714286,450.57445 C333.714286,452.404229 333.351276,453.857143 330.486046,453.857143 L261.639649,453.839672 Z M204.36023,453.839672 C207.941942,453.839672 208.397116,452.364297 204.820701,450.511698 L137.010693,416.193346 C133.429228,414.378185 132.308738,415.551568 132.285714,417.381704 L132.285714,450.57445 C132.285714,452.404229 132.64897,453.857143 135.514164,453.857143 L204.36023,453.839672 Z M230.50116,253.022463 C231.344626,252.651568 232.259061,252.44997 233.188044,252.430184 C234.116673,252.410398 235.039624,252.572844 235.899768,252.907419 L330.588319,298.433083 C332.002021,299.113698 331.873567,300.264136 330.315799,301.008024 L235.486019,346.12018 C234.642553,346.491075 233.728118,346.692778 232.799135,346.712703 C231.870506,346.732279 230.947555,346.570078 230.087411,346.235189 L135.411776,300.70949 C133.997897,300.029225 134.126457,298.878786 135.684297,298.134549 L230.50116,253.022463 Z" fill="#FFFFFF" opacity="0.434151786" mask="url(#mask-2)"></path>
            </g>
        </g>
    </g>
</svg>